<?xml version="1.0" encoding="UTF-8" standalone="no"?><!DOCTYPE svg PUBLIC "-//W3C//DTD SVG 1.1//EN" "http://www.w3.org/Graphics/SVG/1.1/DTD/svg11.dtd"><svg width="100%" height="100%" viewBox="0 0 150 57" version="1.1" xmlns="http://www.w3.org/2000/svg" xmlns:xlink="http://www.w3.org/1999/xlink" xml:space="preserve" xmlns:serif="http://www.serif.com/" style="fill-rule:evenodd;clip-rule:evenodd;stroke-linejoin:round;stroke-miterlimit:2;"><rect id="Artboard2" x="0" y="0" width="150" height="57" style="fill:none;"/><g><g><path d="M0,44.359l11.801,0l0,-4.057l-6.655,-0l-0,-36.245l6.655,0l0,-4.057l-11.801,0l0,44.359Z" style="fill:#222;fill-rule:nonzero;"/><path d="M25.705,35.7l6.111,0l12.716,-35.7l-5.962,0l-9.748,29.54l-0.123,-0l-9.748,-29.54l-5.962,0l12.716,35.7Z" style="fill:#222;fill-rule:nonzero;"/><path d="M48.466,35.7l5.542,0l-0,-13.706l7.62,0l7.274,13.706l6.383,0l-7.992,-14.547c4.28,-1.46 6.928,-5.319 6.928,-10.168l-0,-0.05c-0,-6.704 -4.602,-10.935 -11.9,-10.935l-13.855,0l0,35.7Zm5.542,-18.258l-0,-12.791l7.62,0c4.255,0 6.878,2.375 6.878,6.334l-0,0.049c-0,4.058 -2.45,6.408 -6.73,6.408l-7.768,-0Z" style="fill:#222;fill-rule:nonzero;"/><path d="M79.565,35.7l5.541,0l0,-12.197l7.744,0c7.002,0 11.851,-4.775 11.851,-11.751l-0,-0.05c-0,-7.001 -4.849,-11.702 -11.851,-11.702l-13.285,0l-0,35.7Zm11.9,-31.024c4.824,-0 7.595,2.598 7.595,7.051l-0,0.049c-0,4.478 -2.771,7.076 -7.595,7.076l-6.359,0l0,-14.176l6.359,-0Z" style="fill:#222;fill-rule:nonzero;"/><path d="M109.55,35.7l5.542,0l-0,-11.925l3.636,-4.205l11.801,16.13l6.853,0l-14.695,-19.916l13.533,-15.784l-6.581,0l-14.399,17.095l-0.148,0l-0,-17.095l-5.542,0l-0,35.7Z" style="fill:#222;fill-rule:nonzero;"/><path d="M150,44.359l0,-44.359l-11.801,0l-0,4.057l6.655,0l0,36.245l-6.655,-0l-0,4.057l11.801,0Z" style="fill:#222;fill-rule:nonzero;"/></g><g><path d="M20.005,56.733l0,-12.348l1.135,-0l-0,1.855l0.105,-0c0.182,-0.415 0.427,-0.772 0.732,-1.072c0.306,-0.3 0.662,-0.532 1.066,-0.694c0.404,-0.163 0.844,-0.245 1.32,-0.245c0.785,0 1.471,0.201 2.059,0.602c0.588,0.4 1.046,0.959 1.374,1.675c0.327,0.717 0.491,1.552 0.491,2.505l0,0.018c0,0.957 -0.164,1.795 -0.491,2.512c-0.328,0.717 -0.786,1.276 -1.374,1.676c-0.588,0.399 -1.274,0.599 -2.059,0.599c-0.468,0 -0.907,-0.081 -1.316,-0.244c-0.409,-0.163 -0.769,-0.391 -1.078,-0.685c-0.308,-0.293 -0.55,-0.641 -0.724,-1.043l-0.105,0l-0,4.889l-1.135,0Zm4.122,-3.928c0.614,-0 1.144,-0.155 1.592,-0.465c0.448,-0.31 0.795,-0.748 1.041,-1.315c0.246,-0.566 0.369,-1.231 0.369,-1.994l-0,-0.017c-0,-0.768 -0.123,-1.434 -0.369,-1.998c-0.246,-0.563 -0.593,-1 -1.041,-1.31c-0.448,-0.31 -0.978,-0.465 -1.592,-0.465c-0.609,-0 -1.14,0.156 -1.592,0.468c-0.452,0.312 -0.801,0.75 -1.048,1.313c-0.247,0.564 -0.371,1.228 -0.371,1.992l0,0.017c0,0.761 0.124,1.424 0.372,1.99c0.248,0.565 0.598,1.004 1.05,1.316c0.452,0.312 0.982,0.468 1.589,0.468Z" style="fill:#888;fill-rule:nonzero;"/><path d="M31.505,53.661l0,-12.967l1.135,0l-0,5.324l0.105,0c0.25,-0.564 0.623,-1.003 1.118,-1.317c0.495,-0.314 1.102,-0.472 1.822,-0.472c0.689,0 1.275,0.134 1.759,0.401c0.484,0.267 0.854,0.653 1.11,1.16c0.257,0.506 0.385,1.119 0.385,1.839l-0,6.032l-1.135,-0l-0,-5.749c-0,-0.885 -0.201,-1.551 -0.604,-1.999c-0.403,-0.448 -1.005,-0.672 -1.807,-0.672c-0.546,-0 -1.026,0.121 -1.439,0.363c-0.413,0.242 -0.735,0.581 -0.967,1.015c-0.231,0.435 -0.347,0.946 -0.347,1.532l-0,5.51l-1.135,-0Z" style="fill:#888;fill-rule:nonzero;"/><path d="M46.222,53.816c-0.862,0 -1.609,-0.194 -2.239,-0.582c-0.631,-0.389 -1.118,-0.941 -1.461,-1.658c-0.343,-0.716 -0.514,-1.565 -0.514,-2.545l-0,-0.017c-0,-0.986 0.171,-1.836 0.514,-2.552c0.343,-0.716 0.83,-1.267 1.461,-1.653c0.63,-0.386 1.377,-0.58 2.239,-0.58c0.866,0 1.613,0.194 2.242,0.58c0.629,0.386 1.115,0.937 1.458,1.653c0.342,0.716 0.514,1.566 0.514,2.552l-0,0.017c-0,0.98 -0.172,1.829 -0.514,2.545c-0.343,0.717 -0.829,1.269 -1.458,1.658c-0.629,0.388 -1.376,0.582 -2.242,0.582Zm-0,-1.011c0.638,-0 1.184,-0.152 1.638,-0.457c0.455,-0.304 0.805,-0.738 1.05,-1.302c0.245,-0.563 0.368,-1.235 0.368,-2.015l-0,-0.017c-0,-0.783 -0.123,-1.457 -0.368,-2.02c-0.245,-0.564 -0.595,-0.997 -1.05,-1.3c-0.454,-0.302 -1,-0.453 -1.638,-0.453c-0.638,-0 -1.185,0.151 -1.64,0.453c-0.456,0.303 -0.805,0.736 -1.05,1.298c-0.244,0.563 -0.366,1.237 -0.366,2.022l0,0.017c0,0.78 0.122,1.452 0.366,2.015c0.245,0.564 0.594,0.998 1.05,1.302c0.455,0.305 1.002,0.457 1.64,0.457Z" style="fill:#888;fill-rule:nonzero;"/><path d="M56.642,53.724c-0.881,0 -1.517,-0.184 -1.908,-0.554c-0.392,-0.369 -0.587,-0.974 -0.587,-1.814l-0,-6.019l-1.491,0l0,-0.952l1.491,-0l-0,-2.408l1.17,0l-0,2.408l2.124,-0l-0,0.952l-2.124,0l-0,5.759c-0,0.571 0.112,0.983 0.336,1.237c0.223,0.253 0.596,0.38 1.118,0.38c0.129,-0 0.243,-0.003 0.343,-0.01c0.1,-0.007 0.209,-0.015 0.327,-0.025l-0,0.974c-0.131,0.019 -0.261,0.036 -0.391,0.05c-0.13,0.015 -0.266,0.022 -0.408,0.022Z" style="fill:#888;fill-rule:nonzero;"/><path d="M64.004,53.816c-0.862,0 -1.609,-0.194 -2.24,-0.582c-0.631,-0.389 -1.117,-0.941 -1.46,-1.658c-0.343,-0.716 -0.514,-1.565 -0.514,-2.545l-0,-0.017c-0,-0.986 0.171,-1.836 0.514,-2.552c0.343,-0.716 0.829,-1.267 1.46,-1.653c0.631,-0.386 1.378,-0.58 2.24,-0.58c0.866,0 1.613,0.194 2.242,0.58c0.629,0.386 1.115,0.937 1.457,1.653c0.343,0.716 0.515,1.566 0.515,2.552l-0,0.017c-0,0.98 -0.172,1.829 -0.515,2.545c-0.342,0.717 -0.828,1.269 -1.457,1.658c-0.629,0.388 -1.376,0.582 -2.242,0.582Zm-0,-1.011c0.638,-0 1.184,-0.152 1.638,-0.457c0.455,-0.304 0.805,-0.738 1.05,-1.302c0.245,-0.563 0.367,-1.235 0.367,-2.015l0,-0.017c0,-0.783 -0.122,-1.457 -0.367,-2.02c-0.245,-0.564 -0.595,-0.997 -1.05,-1.3c-0.454,-0.302 -1,-0.453 -1.638,-0.453c-0.638,-0 -1.185,0.151 -1.64,0.453c-0.456,0.303 -0.806,0.736 -1.05,1.298c-0.244,0.563 -0.366,1.237 -0.366,2.022l-0,0.017c-0,0.78 0.122,1.452 0.366,2.015c0.244,0.564 0.594,0.998 1.05,1.302c0.455,0.305 1.002,0.457 1.64,0.457Z" style="fill:#888;fill-rule:nonzero;"/><path d="M75.125,56.894c-0.706,0 -1.328,-0.098 -1.866,-0.295c-0.538,-0.197 -0.97,-0.474 -1.296,-0.832c-0.327,-0.359 -0.532,-0.776 -0.616,-1.252l0.015,-0.009l1.172,-0.002l0.009,0.011c0.102,0.403 0.382,0.731 0.84,0.986c0.458,0.255 1.04,0.382 1.748,0.382c0.893,0 1.6,-0.215 2.119,-0.645c0.52,-0.43 0.779,-1.02 0.779,-1.77l0,-2.078l-0.105,0c-0.184,0.407 -0.43,0.756 -0.737,1.047c-0.307,0.291 -0.662,0.513 -1.064,0.665c-0.401,0.152 -0.84,0.228 -1.315,0.228c-0.793,0 -1.482,-0.192 -2.068,-0.578c-0.586,-0.385 -1.04,-0.919 -1.361,-1.601c-0.321,-0.683 -0.482,-1.466 -0.482,-2.351l0,-0.017c0,-0.887 0.162,-1.672 0.485,-2.357c0.323,-0.684 0.779,-1.221 1.367,-1.611c0.588,-0.39 1.282,-0.586 2.082,-0.586c0.478,0 0.919,0.084 1.322,0.252c0.404,0.167 0.758,0.404 1.062,0.709c0.304,0.305 0.544,0.666 0.721,1.083l0.081,-0l0,-1.888l1.135,-0l0,9.166c0,0.67 -0.166,1.257 -0.497,1.76c-0.331,0.502 -0.799,0.892 -1.404,1.169c-0.604,0.276 -1.313,0.414 -2.126,0.414Zm-0.093,-4.575c0.621,0 1.157,-0.148 1.608,-0.444c0.451,-0.295 0.799,-0.706 1.045,-1.232c0.245,-0.526 0.368,-1.134 0.368,-1.824l-0,-0.017c-0,-0.696 -0.124,-1.311 -0.372,-1.848c-0.249,-0.536 -0.598,-0.955 -1.049,-1.258c-0.451,-0.304 -0.985,-0.455 -1.6,-0.455c-0.617,-0 -1.148,0.15 -1.592,0.452c-0.444,0.301 -0.786,0.718 -1.026,1.251c-0.239,0.532 -0.359,1.144 -0.359,1.836l0,0.017c0,0.692 0.12,1.303 0.359,1.831c0.24,0.529 0.582,0.943 1.026,1.242c0.444,0.299 0.975,0.449 1.592,0.449Z" style="fill:#888;fill-rule:nonzero;"/><path d="M82.767,53.661l0,-9.276l1.135,-0l-0,1.529l0.105,0c0.183,-0.531 0.493,-0.945 0.93,-1.241c0.436,-0.296 0.967,-0.444 1.593,-0.444c0.17,0 0.331,0.009 0.48,0.026c0.15,0.017 0.281,0.039 0.394,0.067l-0,1.108c-0.166,-0.041 -0.327,-0.071 -0.484,-0.09c-0.156,-0.019 -0.325,-0.029 -0.508,-0.029c-0.482,0 -0.912,0.11 -1.29,0.329c-0.378,0.22 -0.676,0.522 -0.894,0.906c-0.218,0.385 -0.326,0.829 -0.326,1.331l-0,5.784l-1.135,-0Z" style="fill:#888;fill-rule:nonzero;"/><path d="M92.432,53.816c-0.595,0 -1.125,-0.111 -1.592,-0.333c-0.467,-0.222 -0.835,-0.536 -1.103,-0.943c-0.268,-0.407 -0.402,-0.885 -0.402,-1.433l0,-0.017c0,-0.538 0.129,-1 0.388,-1.385c0.259,-0.385 0.637,-0.688 1.136,-0.909c0.499,-0.222 1.105,-0.355 1.819,-0.401l3.461,-0.231l0,0.923l-3.313,0.229c-0.789,0.051 -1.375,0.224 -1.758,0.52c-0.383,0.296 -0.575,0.706 -0.575,1.23l0,0.018c0,0.533 0.202,0.957 0.606,1.27c0.404,0.312 0.919,0.469 1.545,0.469c0.558,-0 1.058,-0.116 1.499,-0.348c0.441,-0.232 0.79,-0.545 1.045,-0.939c0.256,-0.395 0.384,-0.838 0.384,-1.331l-0,-2.874c-0,-0.682 -0.201,-1.201 -0.601,-1.557c-0.401,-0.356 -0.976,-0.533 -1.727,-0.533c-0.631,-0 -1.157,0.124 -1.578,0.371c-0.421,0.248 -0.693,0.602 -0.817,1.064l-0.006,0.02l-1.138,-0l0.006,-0.038c0.082,-0.495 0.284,-0.924 0.605,-1.287c0.32,-0.363 0.734,-0.643 1.241,-0.843c0.506,-0.199 1.08,-0.299 1.722,-0.299c0.726,0 1.343,0.122 1.854,0.367c0.511,0.244 0.901,0.596 1.17,1.057c0.269,0.462 0.403,1.019 0.403,1.673l0,6.335l-1.134,-0l-0,-1.6l-0.106,0c-0.184,0.365 -0.426,0.68 -0.725,0.943c-0.299,0.263 -0.643,0.464 -1.033,0.603c-0.39,0.14 -0.815,0.209 -1.276,0.209Z" style="fill:#888;fill-rule:nonzero;"/><path d="M100.267,56.733l-0,-12.348l1.135,-0l-0,1.855l0.105,-0c0.182,-0.415 0.426,-0.772 0.732,-1.072c0.306,-0.3 0.661,-0.532 1.066,-0.694c0.404,-0.163 0.844,-0.245 1.32,-0.245c0.784,0 1.471,0.201 2.059,0.602c0.588,0.4 1.045,0.959 1.373,1.675c0.328,0.717 0.492,1.552 0.492,2.505l-0,0.018c-0,0.957 -0.164,1.795 -0.492,2.512c-0.328,0.717 -0.785,1.276 -1.373,1.676c-0.588,0.399 -1.275,0.599 -2.059,0.599c-0.468,0 -0.907,-0.081 -1.317,-0.244c-0.409,-0.163 -0.768,-0.391 -1.077,-0.685c-0.309,-0.293 -0.55,-0.641 -0.724,-1.043l-0.105,0l-0,4.889l-1.135,0Zm4.122,-3.928c0.613,-0 1.144,-0.155 1.592,-0.465c0.448,-0.31 0.795,-0.748 1.041,-1.315c0.246,-0.566 0.369,-1.231 0.369,-1.994l-0,-0.017c-0,-0.768 -0.123,-1.434 -0.369,-1.998c-0.246,-0.563 -0.593,-1 -1.041,-1.31c-0.448,-0.31 -0.979,-0.465 -1.592,-0.465c-0.61,-0 -1.14,0.156 -1.592,0.468c-0.452,0.312 -0.801,0.75 -1.048,1.313c-0.247,0.564 -0.371,1.228 -0.371,1.992l0,0.017c0,0.761 0.124,1.424 0.372,1.99c0.248,0.565 0.598,1.004 1.05,1.316c0.451,0.312 0.981,0.468 1.589,0.468Z" style="fill:#888;fill-rule:nonzero;"/><path d="M111.767,53.661l-0,-12.967l1.135,0l-0,5.324l0.105,0c0.25,-0.564 0.622,-1.003 1.117,-1.317c0.496,-0.314 1.103,-0.472 1.822,-0.472c0.689,0 1.276,0.134 1.76,0.401c0.484,0.267 0.854,0.653 1.11,1.16c0.256,0.506 0.384,1.119 0.384,1.839l0,6.032l-1.135,-0l0,-5.749c0,-0.885 -0.201,-1.551 -0.604,-1.999c-0.402,-0.448 -1.005,-0.672 -1.806,-0.672c-0.547,-0 -1.026,0.121 -1.439,0.363c-0.413,0.242 -0.736,0.581 -0.967,1.015c-0.232,0.435 -0.347,0.946 -0.347,1.532l-0,5.51l-1.135,-0Z" style="fill:#888;fill-rule:nonzero;"/><path d="M123.377,56.866c-0.076,0 -0.159,-0.003 -0.251,-0.008c-0.092,-0.006 -0.177,-0.015 -0.257,-0.027l-0,-0.946c0.072,0.011 0.149,0.019 0.232,0.023c0.083,0.004 0.163,0.006 0.241,0.006c0.431,0 0.785,-0.109 1.063,-0.328c0.278,-0.219 0.51,-0.608 0.696,-1.165l0.24,-0.7l-3.484,-9.336l1.217,-0l3.061,8.792l-0.472,-0.743l0.554,-0l-0.477,0.743l3.056,-8.792l1.199,-0l-3.755,10.085c-0.222,0.606 -0.46,1.084 -0.713,1.432c-0.253,0.349 -0.55,0.597 -0.891,0.744c-0.34,0.147 -0.76,0.22 -1.259,0.22Z" style="fill:#888;fill-rule:nonzero;"/></g></g></svg>